P2
20 20
255
0 2 0 1 0 0 0 0 0 1 5 0 0 0 0 0 0 1 1 0
1 1 0 5 1 0 3 0 3 0 0 1 0 0 1 3 0 0 1 4
1 0 4 0 0 3 0 0 2 0 0 1 1 2 0 0 1 3 0 0
0 2 1 2 1 0 2 3 0 5 3 0 6 0 4 4 2 0 2 1
1 0 0 6 2 0 0 1 1 0 2 6 0 0 5 0 0 8 1 0
0 1 0 1 0 155 255 255 255 118 0 3 142 255 255 255 63 0 0 0
2 0 2 0 172 255 65 2 63 255 38 75 255 62 0 124 163 2 0 1
0 1 0 41 254 44 2 0 0 13 0 166 200 0 3 0 0 4 0 0
0 2 0 145 253 4 0 4 1 7 0 141 255 0 3 2 4 2 1 1
2 0 0 210 182 0 3 1 0 0 8 4 255 255 101 0 3 0 0 2
1 1 0 235 176 0 0 0 1 0 1 0 11 180 255 238 17 1 0 2
0 3 0 213 184 0 1 0 1 0 0 5 0 0 22 246 240 3 2 0
4 0 0 159 255 0 0 3 0 0 0 0 2 3 0 56 255 16 0 5
0 3 2 39 254 66 0 2 1 37 39 2 3 0 1 68 255 6 2 0
0 0 0 5 178 253 133 64 129 255 14 248 163 74 86 253 183 0 0 3
0 1 2 6 0 127 253 255 222 56 2 67 215 253 255 144 0 3 2 0
0 0 0 0 0 0 0 0 0 0 0 0 0 0 0 0 0 0 0 0
0 0 0 0 0 0 0 0 0 0 0 0 0 0 0 0 0 0 0 0
0 0 0 0 0 0 0 0 0 0 0 0 0 0 0 0 0 0 0 0
0 0 0 0 0 0 0 0 0 0 0 0 0 0 0 0 0 0 0 0
