P2
20 20
255
255 253 255 254 255 255 255 255 255 254 250 255 255 255 255 255 255 254 254 255
254 254 255 250 254 255 252 255 252 255 255 254 255 255 254 252 255 255 254 251
254 255 251 255 255 252 255 255 253 255 255 254 254 253 255 255 254 252 255 255
255 253 254 253 254 255 253 252 255 250 252 255 249 255 251 251 253 255 253 254
254 255 255 249 253 255 255 254 254 255 253 249 255 255 250 255 255 247 254 255
255 254 255 254 255 100   0   0   0 137 255 252 113   0   0   0 192 255 255 255
253 255 253 255  83   0 190 253 192   0 217 180   0 193 255 131  92 253 255 254
255 254 255 214   1 211 253 255 255 242 255  89  55 255 252 255 255 251 255 255
255 253 255 110   2 251 255 251 254 248 255 114   0 255 252 253 251 253 254 254
253 255 255  45  73 255 252 254 255 255 247 251   0   0 154 255 252 255 255 253
254 254 255  20  79 255 255 255 254 255 254 255 244  75   0  17 238 254 255 253
255 252 255  42  71 255 254 255 254 255 255 250 255 255 233   9  15 252 253 255
251 255 255  96   0 255 255 252 255 255 255 255 253 252 255 199   0 239 255 250
255 252 253 216   1 189 255 253 254 218 216 253 252 255 254 187   0 249 253 255
255 255 255 250  77   2 122 191 126   0 241   7  92 181 169   2  72 255 255 252
255 254 253 249 255 128   2   0  33 199 253 188  40   2   0 111 255 252 253 255
255 255 255 255 255 255 255 255 255 255 255 255 255 255 255 255 255 255 255 255
255 255 255 255 255 255 255 255 255 255 255 255 255 255 255 255 255 255 255 255
255 255 255 255 255 255 255 255 255 255 255 255 255 255 255 255 255 255 255 255
255 255 255 255 255 255 255 255 255 255 255 255 255 255 255 255 255 255 255 255
