P2
15 17
255
253 255 255 252 255 255 255 253 253 255 255 255 254 253 255
255 250 255 255 251 251 255 255 255 251 255 255 255 255 248
255 255 252 255 255 255 254 255 254 255 255 253 253 253 255
254 252 233   1   0   0   0   0   1   0   0   5  10 255 255
255 255 221   1 255 254 255 255 254 255 255 255   0 254 255
255 255 219   1 254 255 255 253 255 254 253 255   0 255 255
255 250 225   3 253 255 254 255 253 255 255 254   2 255 253
253 255 221   1 254 255 254 254 255 255 255 255   1 251 255
255 253 225   4 255 255 255 255 254 255 252 255   0 255 255
255 255 217   8 255 253 254 255 255 255 255 252   0 253 251
255 253 225   7 255 255 255 250 253 255 250 255   2 255 255
255 253 223   9 252 255 253 255 255 255 255 255   2 252 255
255 255 221   8 255 253 255 252 253 253 254 250   0 255 255
255 255 222   1   4   6   7   1   6   7   0   1   0 255 251
254 255 255 250 251 250 251 246 250 249 250 250 254 253 255
255 252 255 255 251 255 255 255 255 254 255 255 255 254 255
255 255 255 255 255 255 255 255 255 255 255 255 255 255 255
