P2
15 17
255
2 0 0 3 0 0 0 2 2 0 0 0 1 2 0
0 5 0 0 4 4 0 0 0 4 0 0 0 0 7
0 0 3 0 0 0 1 0 1 0 0 2 2 2 0
1 3 22 254 255 255 255 255 254 255 255 250 245 0 0
0 0 34 254 0 1 0 0 1 0 0 0 255 1 0
0 0 36 254 1 0 0 2 0 1 2 0 255 0 0
0 5 30 252 2 0 1 0 2 0 0 1 253 0 2
2 0 34 254 1 0 1 1 0 0 0 0 254 4 0
0 2 30 251 0 0 0 0 1 0 3 0 255 0 0
0 0 38 247 0 2 1 0 0 0 0 3 255 2 4
0 2 30 248 0 0 0 5 2 0 5 0 253 0 0
0 2 32 246 3 0 2 0 0 0 0 0 253 3 0
0 0 34 247 0 2 0 3 2 2 1 5 255 0 0
0 0 33 254 251 249 248 254 249 248 255 254 255 0 4
1 0 0 5 4 5 4 9 5 6 5 5 1 2 0
0 3 0 0 4 0 0 0 0 1 0 0 0 1 0
0 0 0 0 0 0 0 0 0 0 0 0 0 0 0
