P2
20 20
255
254 255 254 255 254 255 253 240 218 141 154 131 222 248 251 254 254 254 254 254
255 253 251 255 254 254 227 212 194 161 133 149 112 241 252 252 255 255 255 254
255 252 255 254 249 253 197 166 166 214 126 170 117 142 247 254 254 254 255 254
252 255 251 255 253 253 230 212 166 211 128 172 112 173 250 255 254 254 255 254
253 253 254 252 253 253 251 199 202 171 155 147 115 201 251 253 254 254 255 254
253 253 254 255 252 248 239 233 238 140 169 138 113 196 247 255 254 254 255 255
254 254 253 252 251 249 168 187 215 162 156 142 124 123 246 252 255 255 254 254
255 255 254 255 224 137 228 212 153 243 173 121 127 121 135 235 254 254 254 254
255 252 255 254 200 214 234 187 182 221 177 121 129 127 121 146 251 255 254 251
252 255 251 229 218 188 186 202 226 246 176 120 128 130 122 177 248 253 254 254
254 254 248 241 230 202 240 211 199 208 180 120 129 127 133 116 162 247 252 253
254 252 232 218 239 205 193 218 252 247 191 116 129 130 131 125 134 245 249 254
241 218 249 209 196 225 249 191 254 250 187 124 126 131 126 133 117 167 247 246
252 236 194 222 248 186 250 184 251 250 190 114 127 132 131 129 127 115 141 248
196 220 249 189 249 176 251 233 254 250 189 122 131 134 128 128 133 128 105 245
254 251 251 176 250 234 248 191 253 249 189 118 128 130 128 133 130 128 112 227
253 254 251 223 251 197 252 225 254 248 194 116 131 133 132 129 130 130 112 232
254 253 251 208 251 205 251 217 254 250 190 111 123 124 121 123 122 122 102 228
255 251 252 218 248 231 249 229 255 252 204 146 150 152 150 155 150 157 146 231
255 255 253 248 252 253 254 255 253 253 249 246 244 244 245 245 246 248 246 251
