P2
20 20
255
1 0 1 0 1 0 2 15 37 114 101 124 33 7 4 1 1 1 1 1
0 2 4 0 1 1 28 43 61 94 122 106 143 14 3 3 0 0 0 1
0 3 0 1 6 2 58 89 89 41 129 85 138 113 8 1 1 1 0 1
3 0 4 0 2 2 25 43 89 44 127 83 143 82 5 0 1 1 0 1
2 2 1 3 2 2 4 56 53 84 100 108 140 54 4 2 1 1 0 1
2 2 1 0 3 7 16 22 17 115 86 117 142 59 8 0 1 1 0 0
1 1 2 3 4 6 87 68 40 93 99 113 131 132 9 3 0 0 1 1
0 0 1 0 31 118 27 43 102 12 82 134 128 134 120 20 1 1 1 1
0 3 0 1 55 41 21 68 73 34 78 134 126 128 134 109 4 0 1 4
3 0 4 26 37 67 69 53 29 9 79 135 127 125 133 78 7 2 1 1
1 1 7 14 25 53 15 44 56 47 75 135 126 128 122 139 93 8 3 2
1 3 23 37 16 50 62 37 3 8 64 139 126 125 124 130 121 10 6 1
14 37 6 46 59 30 6 64 1 5 68 131 129 124 129 122 138 88 8 9
3 19 61 33 7 69 5 71 4 5 65 141 128 123 124 126 128 140 114 7
59 35 6 66 6 79 4 22 1 5 66 133 124 121 127 127 122 127 150 10
1 4 4 79 5 21 7 64 2 6 66 137 127 125 127 122 125 127 143 28
2 1 4 32 4 58 3 30 1 7 61 139 124 122 123 126 125 125 143 23
1 2 4 47 4 50 4 38 1 5 65 144 132 131 134 132 133 133 153 27
0 4 3 37 7 24 6 26 0 3 51 109 105 103 105 100 105 98 109 24
0 0 2 7 3 2 1 0 2 2 6 9 11 11 10 10 9 7 9 4
