P2
40 37
255
254 255 255 254 254 255 255 254 253 254 253 254 254 253 253 250 247 245 242 192 224 244 247 250 253 255 251 253 254 254 254 254 254 255 255 255 255 255 255 255
254 254 255 255 255 255 255 255 252 254 253 255 254 251 250 196 153 161 147 144 145 145 174 216 249 255 253 253 254 253 254 255 255 255 255 255 255 255 255 255
254 254 255 255 254 254 255 255 254 254 250 253 254 252 225 142 155 158 158 182 162 151 157 134 216 252 254 252 251 254 253 254 255 255 255 255 255 255 255 255
255 254 254 254 254 254 255 255 253 255 254 253 251 249 147 157 157 158 157 162 173 187 181 160 190 251 251 254 254 250 252 254 255 255 255 255 255 255 255 255
254 255 254 254 254 255 255 254 255 253 255 252 249 167 153 158 160 160 173 187 176 159 155 177 179 161 202 248 253 255 254 252 254 255 255 255 255 255 255 255
254 255 254 255 254 255 255 254 254 255 250 251 202 145 156 158 156 162 155 162 183 192 188 169 155 149 231 251 251 255 253 253 254 255 255 255 255 255 255 255
255 254 254 254 255 255 255 255 254 254 253 226 142 160 156 159 158 156 161 146 126 150 169 178 195 185 161 200 253 252 254 255 255 255 255 255 255 255 255 255
255 255 254 254 254 254 255 255 254 254 251 168 152 155 160 158 159 159 159 140 113 148 111 152 136 161 173 233 252 254 254 254 255 255 255 255 255 255 255 255
255 255 254 254 254 254 254 254 253 254 253 246 149 157 160 159 158 156 161 143 115 148 114 149 117 139 148 247 251 254 253 254 255 255 255 255 255 255 255 255
255 255 254 254 254 254 255 254 254 253 254 249 157 156 157 157 160 152 159 143 115 148 117 151 122 135 169 247 252 255 255 255 255 255 255 255 255 255 255 255
254 255 254 255 254 254 255 255 255 253 254 250 161 155 159 161 156 164 162 141 109 149 107 156 117 140 172 247 246 253 252 255 255 255 255 255 255 255 255 255
254 254 255 255 255 254 255 255 255 254 255 248 162 155 161 160 154 159 160 161 152 152 118 151 115 137 174 246 251 253 254 252 255 255 255 255 255 255 255 255
254 254 255 255 254 255 255 255 254 254 254 250 165 155 158 157 163 156 156 154 152 194 165 168 142 136 167 248 250 253 254 254 255 255 255 255 255 255 255 255
255 254 255 255 255 255 255 255 255 253 255 250 166 154 159 166 156 152 188 190 177 161 151 178 165 194 167 249 253 254 254 252 255 255 255 255 255 255 255 255
254 254 254 254 254 255 253 253 254 255 254 250 164 156 161 170 185 189 159 155 167 179 188 179 165 156 169 249 253 255 255 255 255 255 255 255 255 255 255 255
254 254 255 254 254 254 253 253 253 255 254 248 161 156 158 161 158 153 158 157 158 156 157 163 164 186 170 239 248 253 254 253 254 254 255 255 255 255 255 255
254 253 255 253 253 254 253 254 255 253 252 235 144 161 157 159 158 158 158 156 158 159 158 156 151 151 151 190 247 252 255 255 252 253 254 255 255 255 254 254
255 254 254 255 255 254 254 254 253 244 144 188 157 156 163 154 158 156 160 158 161 157 155 167 203 166 155 144 184 249 248 255 254 254 253 252 255 255 255 254
252 254 254 254 254 254 253 253 248 153 153 149 155 161 156 180 172 165 156 157 156 161 146 242 240 242 167 151 140 197 253 254 254 254 255 255 255 252 254 255
253 255 255 254 254 254 252 249 235 147 161 161 162 159 156 187 198 198 193 179 168 151 174 240 240 201 227 144 158 242 248 254 254 254 255 253 253 254 254 251
255 252 254 254 255 253 251 217 144 109 115 164 152 158 150 193 194 196 193 198 199 198 153 238 200 221 234 140 161 243 246 249 255 254 255 255 255 254 254 254
255 254 252 254 253 253 249 151 141 105 101 159 158 159 159 172 185 199 199 194 195 194 160 190 248 245 205 162 157 137 166 210 243 249 253 255 255 255 253 255
254 254 253 255 253 253 250 150 130 109  99 158 164 157 158 157 155 155 156 169 193 200 200 161 162 171 172 202 194 190 178 156 136 205 252 255 252 254 255 254
254 254 255 255 254 251 249 213 122 105 107 164 153 158 163 158 157 158 157 159 153 161 171 180 191 196 193 194 196 196 196 198 174 221 251 254 254 254 255 254
254 255 253 255 254 250 248 217 145  97 144 163 155 161 158 157 157 160 158 157 157 155 160 156 158 167 180 188 191 194 198 196 165 233 252 254 255 254 254 254
254 255 255 253 251 252 246 154 157 160 166 155 155 165 166 158 160 156 158 160 160 159 159 157 159 156 156 154 155 174 183 192 170 226 251 253 251 254 254 250
253 254 255 253 254 247 164 153 157 161 156 161 158 172 198 195 183 167 162 156 152 157 158 159 158 162 163 154 160 153 156 155 154 178 226 247 250 251 254 253
254 255 254 251 255 251 151 155 158 160 155 158 159 173 195 198 196 202 198 191 184 168 156 156 156 159 155 161 158 158 162 157 160 154 146 140 175 232 253 253
254 252 254 254 254 249 184 154 156 157 160 157 156 175 196 192 193 188 194 194 163 156 193 181 172 169 159 157 161 155 157 158 159 156 162 158 145 191 250 254
251 253 253 253 253 238 152 156 161 158 160 162 156 168 197 189 194 192 192 199 148  89 150 198 197 152 178 179 170 159 155 157 157 157 156 156 151 190 251 252
252 254 252 253 245 145 155 161 156 162 153 155 159 173 191 192 187 193 192 192 155  97 157 190 192 107  94 191 188 187 186 175 167 159 157 158 153 169 244 253
255 254 253 246 155 155 158 158 161 140 143 162 155 175 191 192 189 190 189 189 156  93 151 190 192 118  96 188 192 155  87 160 190 191 182 169 165 142 214 253
255 251 244 164 150 157 158 160 159 130 146 159 158 172 191 189 189 192 188 189 170 112 148 191 192 116  96 188 187 161  98 146 191 188 187 187 188 143 250 254
254 251 177 152 157 158 165 127 160 131 146 160 158 172 191 188 188 188 188 185 189 200 193 186 190 128  89 186 193 157  92 143 190 187 187 187 189 144 250 255
255 251 179 149 160 157 162 118 160 132 146 160 158 171 190 187 188 191 182 190 159 123 165 188 183 196 193 183 187 169  94 138 188 185 186 186 188 144 249 255
254 249 181 153 164 134 163 117 162 132 146 160 158 170 190 186 188 185 183 189 155  90 144 189 187 146 154 185 183 186 187 176 186 183 184 185 187 145 247 255
253 237 148 155 160 116 164 118 162 133 146 160 157 169 189 186 187 182 183 186 181 157 162 182 189 118  99 174 185 171 147 176 184 182 183 184 186 145 246 255
